<svg preserveAspectRatio="none" overflow="visible" style="display: block;" width="1738" height="768" viewBox="0 0 1738 768" fill="none" xmlns="http://www.w3.org/2000/svg">
<g id="Layer_1-2">
<path id="Vector" fill-rule="evenodd" clip-rule="evenodd" d="M1738 24.72V23.28H1702.13V0H1699.91V23.28H1664.41V0H1663.67V23.28H1627.43V0H1626.69V23.28H1590.45V0H1589.72V23.28H1553.48V0H1552.74V23.28H1517.24V0H1515.02V23.28H1479.52V0H1478.78V23.28H1442.54V0H1441.8V23.28H1405.56V0H1404.82V23.28H1368.58V0H1367.84V23.28H1332.34V0H1330.12V23.28H1294.63V0H1293.89V23.28H1257.65V0H1256.91V23.28H1220.67V0H1219.93V23.28H1183.69V0H1182.95V23.28H1147.45V0H1145.23V23.28H1109.73V0H1108.99V23.28H1072.75V0H1072.01V23.28H1035.77V0H1035.03V23.28H998.795V0H998.056V23.28H962.556V0H960.338V23.28H924.838V0H924.098V23.28H887.859V0H887.12V23.28H850.88V0H850.141V23.28H813.902V0H813.162V23.28H777.663V0H775.444V23.28H739.944V0H739.205V23.28H702.966V0H702.226V23.28H665.987V0H665.247V23.28H629.008V0H628.269V23.28H592.769V0H590.55V23.28H555.051V0H554.311V23.28H518.072V0H517.332V23.28H481.093V0H480.354V23.28H444.114V0H443.375V23.28H407.875V0H405.657V23.28H370.157V0H369.417V23.28H333.178V0H332.439V23.28H296.2V0H295.46V23.28H259.221V0H258.481V23.28H222.982V0H220.763V23.28H185.263V0H184.524V23.28H148.285V0H147.545V23.28H111.306V0H110.566V23.28H74.3272V0H73.5877V23.28H38.0881V0H35.8694V23.28H0V24.72H35.8694V47.76H0V48.24H35.8694V71.76H0V72.24H35.8694V95.76H0V96.24H35.8694V119.76H0V120.24H35.8694V143.28H0V144.72H35.8694V167.76H0V168.24H35.8694V191.76H0V192.24H35.8694V215.76H0V216.24H35.8694V239.76H0V240.24H35.8694V263.28H0V264.72H35.8694V287.76H0V288.24H35.8694V311.76H0V312.24H35.8694V335.76H0V336.24H35.8694V359.76H0V360.24H35.8694V383.28H0V384.72H35.8694V407.76H0V408.24H35.8694V431.76H0V432.24H35.8694V455.76H0V456.24H35.8694V479.76H0V480.24H35.8694V503.28H0V504.72H35.8694V527.76H0V528.24H35.8694V551.76H0V552.24H35.8694V575.76H0V576.24H35.8694V599.76H0V600.24H35.8694V623.28H0V624.72H35.8694V647.76H0V648.24H35.8694V671.76H0V672.24H35.8694V695.76H0V696.24H35.8694V719.76H0V720.24H35.8694V743.28H0V744.72H35.8694V768H38.0881V744.72H73.5877V768H74.3272V744.72H110.566V768H111.306V744.72H147.545V768H148.285V744.72H184.524V768H185.263V744.72H220.763V768H222.982V744.72H258.481V768H259.221V744.72H295.46V768H296.2V744.72H332.439V768H333.178V744.72H369.417V768H370.157V744.72H405.657V768H407.875V744.72H443.375V768H444.114V744.72H480.354V768H481.093V744.72H517.332V768H518.072V744.72H554.311V768H555.051V744.72H590.55V768H592.769V744.72H628.269V768H629.008V744.72H665.247V768H665.987V744.72H702.226V768H702.966V744.72H739.205V768H739.944V744.72H775.444V768H777.663V744.72H813.162V768H813.902V744.72H850.141V768H850.88V744.72H887.12V768H887.859V744.72H924.098V768H924.838V744.72H960.338V768H962.556V744.72H998.056V768H998.795V744.72H1035.03V768H1035.77V744.72H1072.01V768H1072.75V744.72H1108.99V768H1109.73V744.72H1145.23V768H1147.45V744.72H1182.95V768H1183.69V744.72H1219.93V768H1220.67V744.72H1256.91V768H1257.65V744.72H1293.89V768H1294.63V744.72H1330.12V768H1332.34V744.72H1367.84V768H1368.58V744.72H1404.82V768H1405.56V744.72H1441.8V768H1442.54V744.72H1478.78V768H1479.52V744.72H1515.02V768H1517.24V744.72H1552.74V768H1553.48V744.72H1589.72V768H1590.45V744.72H1626.69V768H1627.43V744.72H1663.67V768H1664.41V744.72H1699.91V768H1702.13V744.72H1738V743.28H1702.13V720.24H1738V719.76H1702.13V696.24H1738V695.76H1702.13V672.24H1738V671.76H1702.13V648.24H1738V647.76H1702.13V624.72H1738V623.28H1702.13V600.24H1738V599.76H1702.13V576.24H1738V575.76H1702.13V552.24H1738V551.76H1702.13V528.24H1738V527.76H1702.13V504.72H1738V503.28H1702.13V480.24H1738V479.76H1702.13V456.24H1738V455.76H1702.13V432.24H1738V431.76H1702.13V408.24H1738V407.76H1702.13V384.72H1738V383.28H1702.13V360.24H1738V359.76H1702.13V336.24H1738V335.76H1702.13V312.24H1738V311.76H1702.13V288.24H1738V287.76H1702.13V264.72H1738V263.28H1702.13V240.24H1738V239.76H1702.13V216.24H1738V215.76H1702.13V192.24H1738V191.76H1702.13V168.24H1738V167.76H1702.13V144.72H1738V143.28H1702.13V120.24H1738V119.76H1702.13V96.24H1738V95.76H1702.13V72.24H1738V71.76H1702.13V48.24H1738V47.76H1702.13V24.72H1738ZM1663.67 24.72V47.76H1627.43V24.72H1663.67ZM1108.99 383.28H1072.75V360.24H1108.99V383.28ZM1109.73 360.24H1145.23V383.28H1109.73V360.24ZM1072.01 383.28H1035.77V360.24H1072.01V383.28ZM1035.03 383.28H998.795V360.24H1035.03V383.28ZM998.056 383.28H962.556V360.24H998.056V383.28ZM960.338 383.28H924.838V360.24H960.338V383.28ZM924.098 383.28H887.859V360.24H924.098V383.28ZM887.12 383.28H850.88V360.24H887.12V383.28ZM850.141 383.28H813.902V360.24H850.141V383.28ZM813.162 383.28H777.663V360.24H813.162V383.28ZM775.444 383.28H739.944V360.24H775.444V383.28ZM739.205 383.28H702.966V360.24H739.205V383.28ZM702.226 383.28H665.987V360.24H702.226V383.28ZM665.247 383.28H629.008V360.24H665.247V383.28ZM628.269 383.28H592.769V360.24H628.269V383.28ZM590.55 383.28H555.051V360.24H590.55V383.28ZM590.55 384.72V407.76H555.051V384.72H590.55ZM592.769 384.72H628.269V407.76H592.769V384.72ZM629.008 384.72H665.247V407.76H629.008V384.72ZM665.987 384.72H702.226V407.76H665.987V384.72ZM702.966 384.72H739.205V407.76H702.966V384.72ZM739.944 384.72H775.444V407.76H739.944V384.72ZM777.663 384.72H813.162V407.76H777.663V384.72ZM813.902 384.72H850.141V407.76H813.902V384.72ZM850.88 384.72H887.12V407.76H850.88V384.72ZM887.859 384.72H924.098V407.76H887.859V384.72ZM924.838 384.72H960.338V407.76H924.838V384.72ZM962.556 384.72H998.056V407.76H962.556V384.72ZM998.795 384.72H1035.03V407.76H998.795V384.72ZM1035.77 384.72H1072.01V407.76H1035.77V384.72ZM1072.75 384.72H1108.99V407.76H1072.75V384.72ZM1109.73 384.72H1145.23V407.76H1109.73V384.72ZM1147.45 384.72H1182.95V407.76H1147.45V384.72ZM1147.45 383.28V360.24H1182.95V383.28H1147.45ZM1147.45 359.76V336.24H1182.95V359.76H1147.45ZM1145.23 359.76H1109.73V336.24H1145.23V359.76ZM1108.99 359.76H1072.75V336.24H1108.99V359.76ZM1072.01 359.76H1035.77V336.24H1072.01V359.76ZM1035.03 359.76H998.795V336.24H1035.03V359.76ZM998.056 359.76H962.556V336.24H998.056V359.76ZM960.338 359.76H924.838V336.24H960.338V359.76ZM924.098 359.76H887.859V336.24H924.098V359.76ZM887.12 359.76H850.88V336.24H887.12V359.76ZM850.141 359.76H813.902V336.24H850.141V359.76ZM813.162 359.76H777.663V336.24H813.162V359.76ZM775.444 359.76H739.944V336.24H775.444V359.76ZM739.205 359.76H702.966V336.24H739.205V359.76ZM702.226 359.76H665.987V336.24H702.226V359.76ZM665.247 359.76H629.008V336.24H665.247V359.76ZM628.269 359.76H592.769V336.24H628.269V359.76ZM590.55 359.76H555.051V336.24H590.55V359.76ZM554.311 359.76H518.072V336.24H554.311V359.76ZM554.311 360.24V383.28H518.072V360.24H554.311ZM554.311 384.72V407.76H518.072V384.72H554.311ZM554.311 408.24V431.76H518.072V408.24H554.311ZM555.051 408.24H590.55V431.76H555.051V408.24ZM592.769 408.24H628.269V431.76H592.769V408.24ZM629.008 408.24H665.247V431.76H629.008V408.24ZM665.987 408.24H702.226V431.76H665.987V408.24ZM702.966 408.24H739.205V431.76H702.966V408.24ZM739.944 408.24H775.444V431.76H739.944V408.24ZM777.663 408.24H813.162V431.76H777.663V408.24ZM813.902 408.24H850.141V431.76H813.902V408.24ZM850.88 408.24H887.12V431.76H850.88V408.24ZM887.859 408.24H924.098V431.76H887.859V408.24ZM924.838 408.24H960.338V431.76H924.838V408.24ZM962.556 408.24H998.056V431.76H962.556V408.24ZM998.795 408.24H1035.03V431.76H998.795V408.24ZM1035.77 408.24H1072.01V431.76H1035.77V408.24ZM1072.75 408.24H1108.99V431.76H1072.75V408.24ZM1109.73 408.24H1145.23V431.76H1109.73V408.24ZM1147.45 408.24H1182.95V431.76H1147.45V408.24ZM1183.69 408.24H1219.93V431.76H1183.69V408.24ZM1183.69 407.76V384.72H1219.93V407.76H1183.69ZM1183.69 383.28V360.24H1219.93V383.28H1183.69ZM1183.69 359.76V336.24H1219.93V359.76H1183.69ZM1183.69 335.76V312.24H1219.93V335.76H1183.69ZM1182.95 335.76H1147.45V312.24H1182.95V335.76ZM1145.23 335.76H1109.73V312.24H1145.23V335.76ZM1108.99 335.76H1072.75V312.24H1108.99V335.76ZM1072.01 335.76H1035.77V312.24H1072.01V335.76ZM1035.03 335.76H998.795V312.24H1035.03V335.76ZM998.056 335.76H962.556V312.24H998.056V335.76ZM960.338 335.76H924.838V312.24H960.338V335.76ZM924.098 335.76H887.859V312.24H924.098V335.76ZM887.12 335.76H850.88V312.24H887.12V335.76ZM850.141 335.76H813.902V312.24H850.141V335.76ZM813.162 335.76H777.663V312.24H813.162V335.76ZM775.444 335.76H739.944V312.24H775.444V335.76ZM739.205 335.76H702.966V312.24H739.205V335.76ZM702.226 335.76H665.987V312.24H702.226V335.76ZM665.247 335.76H629.008V312.24H665.247V335.76ZM628.269 335.76H592.769V312.24H628.269V335.76ZM590.55 335.76H555.051V312.24H590.55V335.76ZM554.311 335.76H518.072V312.24H554.311V335.76ZM517.332 335.76H481.093V312.24H517.332V335.76ZM517.332 336.24V359.76H481.093V336.24H517.332ZM517.332 360.24V383.28H481.093V360.24H517.332ZM517.332 384.72V407.76H481.093V384.72H517.332ZM517.332 408.24V431.76H481.093V408.24H517.332ZM517.332 432.24V455.76H481.093V432.24H517.332ZM518.072 432.24H554.311V455.76H518.072V432.24ZM555.051 432.24H590.55V455.76H555.051V432.24ZM592.769 432.24H628.269V455.76H592.769V432.24ZM629.008 432.24H665.247V455.76H629.008V432.24ZM665.987 432.24H702.226V455.76H665.987V432.24ZM702.966 432.24H739.205V455.76H702.966V432.24ZM739.944 432.24H775.444V455.76H739.944V432.24ZM777.663 432.24H813.162V455.76H777.663V432.24ZM813.902 432.24H850.141V455.76H813.902V432.24ZM850.88 432.24H887.12V455.76H850.88V432.24ZM887.859 432.24H924.098V455.76H887.859V432.24ZM924.838 432.24H960.338V455.76H924.838V432.24ZM962.556 432.24H998.056V455.76H962.556V432.24ZM998.795 432.24H1035.03V455.76H998.795V432.24ZM1035.77 432.24H1072.01V455.76H1035.77V432.24ZM1072.75 432.24H1108.99V455.76H1072.75V432.24ZM1109.73 432.24H1145.23V455.76H1109.73V432.24ZM1147.45 432.24H1182.95V455.76H1147.45V432.24ZM1183.69 432.24H1219.93V455.76H1183.69V432.24ZM1220.67 432.24H1256.91V455.76H1220.67V432.24ZM1220.67 431.76V408.24H1256.91V431.76H1220.67ZM1220.67 407.76V384.72H1256.91V407.76H1220.67ZM1220.67 383.28V360.24H1256.91V383.28H1220.67ZM1220.67 359.76V336.24H1256.91V359.76H1220.67ZM1220.67 335.76V312.24H1256.91V335.76H1220.67ZM1220.67 311.76V288.24H1256.91V311.76H1220.67ZM1219.93 311.76H1183.69V288.24H1219.93V311.76ZM1182.95 311.76H1147.45V288.24H1182.95V311.76ZM1145.23 311.76H1109.73V288.24H1145.23V311.76ZM1108.99 311.76H1072.75V288.24H1108.99V311.76ZM1072.01 311.76H1035.77V288.24H1072.01V311.76ZM1035.03 311.76H998.795V288.24H1035.03V311.76ZM998.056 311.76H962.556V288.24H998.056V311.76ZM960.338 311.76H924.838V288.24H960.338V311.76ZM924.098 311.76H887.859V288.24H924.098V311.76ZM887.12 311.76H850.88V288.24H887.12V311.76ZM850.141 311.76H813.902V288.24H850.141V311.76ZM813.162 311.76H777.663V288.24H813.162V311.76ZM775.444 311.76H739.944V288.24H775.444V311.76ZM739.205 311.76H702.966V288.24H739.205V311.76ZM702.226 311.76H665.987V288.24H702.226V311.76ZM665.247 311.76H629.008V288.24H665.247V311.76ZM628.269 311.76H592.769V288.24H628.269V311.76ZM590.55 311.76H555.051V288.24H590.55V311.76ZM554.311 311.76H518.072V288.24H554.311V311.76ZM517.332 311.76H481.093V288.24H517.332V311.76ZM480.354 311.76H444.114V288.24H480.354V311.76ZM480.354 312.24V335.76H444.114V312.24H480.354ZM480.354 336.24V359.76H444.114V336.24H480.354ZM480.354 360.24V383.28H444.114V360.24H480.354ZM480.354 384.72V407.76H444.114V384.72H480.354ZM480.354 408.24V431.76H444.114V408.24H480.354ZM480.354 432.24V455.76H444.114V432.24H480.354ZM480.354 456.24V479.76H444.114V456.24H480.354ZM481.093 456.24H517.332V479.76H481.093V456.24ZM518.072 456.24H554.311V479.76H518.072V456.24ZM555.051 456.24H590.55V479.76H555.051V456.24ZM592.769 456.24H628.269V479.76H592.769V456.24ZM629.008 456.24H665.247V479.76H629.008V456.24ZM665.987 456.24H702.226V479.76H665.987V456.24ZM702.966 456.24H739.205V479.76H702.966V456.24ZM739.944 456.24H775.444V479.76H739.944V456.24ZM777.663 456.24H813.162V479.76H777.663V456.24ZM813.902 456.24H850.141V479.76H813.902V456.24ZM850.88 456.24H887.12V479.76H850.88V456.24ZM887.859 456.24H924.098V479.76H887.859V456.24ZM924.838 456.24H960.338V479.76H924.838V456.24ZM962.556 456.24H998.056V479.76H962.556V456.24ZM998.795 456.24H1035.03V479.76H998.795V456.24ZM1035.77 456.24H1072.01V479.76H1035.77V456.24ZM1072.75 456.24H1108.99V479.76H1072.75V456.24ZM1109.73 456.24H1145.23V479.76H1109.73V456.24ZM1147.45 456.24H1182.95V479.76H1147.45V456.24ZM1183.69 456.24H1219.93V479.76H1183.69V456.24ZM1220.67 456.24H1256.91V479.76H1220.67V456.24ZM1257.65 456.24H1293.89V479.76H1257.65V456.24ZM1257.65 455.76V432.24H1293.89V455.76H1257.65ZM1257.65 431.76V408.24H1293.89V431.76H1257.65ZM1257.65 407.76V384.72H1293.89V407.76H1257.65ZM1257.65 383.28V360.24H1293.89V383.28H1257.65ZM1257.65 359.76V336.24H1293.89V359.76H1257.65ZM1257.65 335.76V312.24H1293.89V335.76H1257.65ZM1257.65 311.76V288.24H1293.89V311.76H1257.65ZM1257.65 287.76V264.72H1293.89V287.76H1257.65ZM1256.91 287.76H1220.67V264.72H1256.91V287.76ZM1219.93 287.76H1183.69V264.72H1219.93V287.76ZM1182.95 287.76H1147.45V264.72H1182.95V287.76ZM1145.23 287.76H1109.73V264.72H1145.23V287.76ZM1108.99 287.76H1072.75V264.72H1108.99V287.76ZM1072.01 287.76H1035.77V264.72H1072.01V287.76ZM1035.03 287.76H998.795V264.72H1035.03V287.76ZM998.056 287.76H962.556V264.72H998.056V287.76ZM960.338 287.76H924.838V264.72H960.338V287.76ZM924.098 287.76H887.859V264.72H924.098V287.76ZM887.12 287.76H850.88V264.72H887.12V287.76ZM850.141 287.76H813.902V264.72H850.141V287.76ZM813.162 287.76H777.663V264.72H813.162V287.76ZM775.444 287.76H739.944V264.72H775.444V287.76ZM739.205 287.76H702.966V264.72H739.205V287.76ZM702.226 287.76H665.987V264.72H702.226V287.76ZM665.247 287.76H629.008V264.72H665.247V287.76ZM628.269 287.76H592.769V264.72H628.269V287.76ZM590.55 287.76H555.051V264.72H590.55V287.76ZM554.311 287.76H518.072V264.72H554.311V287.76ZM517.332 287.76H481.093V264.72H517.332V287.76ZM480.354 287.76H444.114V264.72H480.354V287.76ZM443.375 287.76H407.875V264.72H443.375V287.76ZM443.375 288.24V311.76H407.875V288.24H443.375ZM443.375 312.24V335.76H407.875V312.24H443.375ZM443.375 336.24V359.76H407.875V336.24H443.375ZM443.375 360.24V383.28H407.875V360.24H443.375ZM443.375 384.72V407.76H407.875V384.72H443.375ZM443.375 408.24V431.76H407.875V408.24H443.375ZM443.375 432.24V455.76H407.875V432.24H443.375ZM443.375 456.24V479.76H407.875V456.24H443.375ZM443.375 480.24V503.28H407.875V480.24H443.375ZM444.114 480.24H480.354V503.28H444.114V480.24ZM481.093 480.24H517.332V503.28H481.093V480.24ZM518.072 480.24H554.311V503.28H518.072V480.24ZM555.051 480.24H590.55V503.28H555.051V480.24ZM592.769 480.24H628.269V503.28H592.769V480.24ZM629.008 480.24H665.247V503.28H629.008V480.24ZM665.987 480.24H702.226V503.28H665.987V480.24ZM702.966 480.24H739.205V503.28H702.966V480.24ZM739.944 480.24H775.444V503.28H739.944V480.24ZM777.663 480.24H813.162V503.28H777.663V480.24ZM813.902 480.24H850.141V503.28H813.902V480.24ZM850.88 480.24H887.12V503.28H850.88V480.24ZM887.859 480.24H924.098V503.28H887.859V480.24ZM924.838 480.24H960.338V503.28H924.838V480.24ZM962.556 480.24H998.056V503.28H962.556V480.24ZM998.795 480.24H1035.03V503.28H998.795V480.24ZM1035.77 480.24H1072.01V503.28H1035.77V480.24ZM1072.75 480.24H1108.99V503.28H1072.75V480.24ZM1109.73 480.24H1145.23V503.28H1109.73V480.24ZM1147.45 480.24H1182.95V503.28H1147.45V480.24ZM1183.69 480.24H1219.93V503.28H1183.69V480.24ZM1220.67 480.24H1256.91V503.28H1220.67V480.24ZM1257.65 480.24H1293.89V503.28H1257.65V480.24ZM1294.63 480.24H1330.12V503.28H1294.63V480.24ZM1294.63 479.76V456.24H1330.12V479.76H1294.63ZM1294.63 455.76V432.24H1330.12V455.76H1294.63ZM1294.63 431.76V408.24H1330.12V431.76H1294.63ZM1294.63 407.76V384.72H1330.12V407.76H1294.63ZM1294.63 383.28V360.24H1330.12V383.28H1294.63ZM1294.63 359.76V336.24H1330.12V359.76H1294.63ZM1294.63 335.76V312.24H1330.12V335.76H1294.63ZM1294.63 311.76V288.24H1330.12V311.76H1294.63ZM1294.63 287.76V264.72H1330.12V287.76H1294.63ZM1294.63 263.28V240.24H1330.12V263.28H1294.63ZM1293.89 263.28H1257.65V240.24H1293.89V263.28ZM1256.91 263.28H1220.67V240.24H1256.91V263.28ZM1219.93 263.28H1183.69V240.24H1219.93V263.28ZM1182.95 263.28H1147.45V240.24H1182.95V263.28ZM1145.23 263.28H1109.73V240.24H1145.23V263.28ZM1108.99 263.28H1072.75V240.24H1108.99V263.28ZM1072.01 263.28H1035.77V240.24H1072.01V263.28ZM1035.03 263.28H998.795V240.24H1035.03V263.28ZM998.056 263.28H962.556V240.24H998.056V263.28ZM960.338 263.28H924.838V240.24H960.338V263.28ZM924.098 263.28H887.859V240.24H924.098V263.28ZM887.12 263.28H850.88V240.24H887.12V263.28ZM850.141 263.28H813.902V240.24H850.141V263.28ZM813.162 263.28H777.663V240.24H813.162V263.28ZM775.444 263.28H739.944V240.24H775.444V263.28ZM739.205 263.28H702.966V240.24H739.205V263.28ZM702.226 263.28H665.987V240.24H702.226V263.28ZM665.247 263.28H629.008V240.24H665.247V263.28ZM628.269 263.28H592.769V240.24H628.269V263.28ZM590.55 263.28H555.051V240.24H590.55V263.28ZM554.311 263.28H518.072V240.24H554.311V263.28ZM517.332 263.28H481.093V240.24H517.332V263.28ZM480.354 263.28H444.114V240.24H480.354V263.28ZM443.375 263.28H407.875V240.24H443.375V263.28ZM405.657 263.28H370.157V240.24H405.657V263.28ZM405.657 264.72V287.76H370.157V264.72H405.657ZM405.657 288.24V311.76H370.157V288.24H405.657ZM405.657 312.24V335.76H370.157V312.24H405.657ZM405.657 336.24V359.76H370.157V336.24H405.657ZM405.657 360.24V383.28H370.157V360.24H405.657ZM405.657 384.72V407.76H370.157V384.72H405.657ZM405.657 408.24V431.76H370.157V408.24H405.657ZM405.657 432.24V455.76H370.157V432.24H405.657ZM405.657 456.24V479.76H370.157V456.24H405.657ZM405.657 480.24V503.28H370.157V480.24H405.657ZM405.657 504.72V527.76H370.157V504.72H405.657ZM407.875 504.72H443.375V527.76H407.875V504.72ZM444.114 504.72H480.354V527.76H444.114V504.72ZM481.093 504.72H517.332V527.76H481.093V504.72ZM518.072 504.72H554.311V527.76H518.072V504.72ZM555.051 504.72H590.55V527.76H555.051V504.72ZM592.769 504.72H628.269V527.76H592.769V504.72ZM629.008 504.72H665.247V527.76H629.008V504.72ZM665.987 504.72H702.226V527.76H665.987V504.72ZM702.966 504.72H739.205V527.76H702.966V504.72ZM739.944 504.72H775.444V527.76H739.944V504.72ZM777.663 504.72H813.162V527.76H777.663V504.72ZM813.902 504.72H850.141V527.76H813.902V504.72ZM850.88 504.72H887.12V527.76H850.88V504.72ZM887.859 504.72H924.098V527.76H887.859V504.72ZM924.838 504.72H960.338V527.76H924.838V504.72ZM962.556 504.72H998.056V527.76H962.556V504.72ZM998.795 504.72H1035.03V527.76H998.795V504.72ZM1035.77 504.72H1072.01V527.76H1035.77V504.72ZM1072.75 504.72H1108.99V527.76H1072.75V504.72ZM1109.73 504.72H1145.23V527.76H1109.73V504.72ZM1147.45 504.72H1182.95V527.76H1147.45V504.72ZM1183.69 504.72H1219.93V527.76H1183.69V504.72ZM1220.67 504.72H1256.91V527.76H1220.67V504.72ZM1257.65 504.72H1293.89V527.76H1257.65V504.72ZM1294.63 504.72H1330.12V527.76H1294.63V504.72ZM1332.34 504.72H1367.84V527.76H1332.34V504.72ZM1332.34 503.28V480.24H1367.84V503.28H1332.34ZM1332.34 479.76V456.24H1367.84V479.76H1332.34ZM1332.34 455.76V432.24H1367.84V455.76H1332.34ZM1332.34 431.76V408.24H1367.84V431.76H1332.34ZM1332.34 407.76V384.72H1367.84V407.76H1332.34ZM1332.34 383.28V360.24H1367.84V383.28H1332.34ZM1332.34 359.76V336.24H1367.84V359.76H1332.34ZM1332.34 335.76V312.24H1367.84V335.76H1332.34ZM1332.34 311.76V288.24H1367.84V311.76H1332.34ZM1332.34 287.76V264.72H1367.84V287.76H1332.34ZM1332.34 263.28V240.24H1367.84V263.28H1332.34ZM1332.34 239.76V216.24H1367.84V239.76H1332.34ZM1330.12 239.76H1294.63V216.24H1330.12V239.76ZM1293.89 239.76H1257.65V216.24H1293.89V239.76ZM1256.91 239.76H1220.67V216.24H1256.91V239.76ZM1219.93 239.76H1183.69V216.24H1219.93V239.76ZM1182.95 239.76H1147.45V216.24H1182.95V239.76ZM1145.23 239.76H1109.73V216.24H1145.23V239.76ZM1108.99 239.76H1072.75V216.24H1108.99V239.76ZM1072.01 239.76H1035.77V216.24H1072.01V239.76ZM1035.03 239.76H998.795V216.24H1035.03V239.76ZM998.056 239.76H962.556V216.24H998.056V239.76ZM960.338 239.76H924.838V216.24H960.338V239.76ZM924.098 239.76H887.859V216.24H924.098V239.76ZM887.12 239.76H850.88V216.24H887.12V239.76ZM850.141 239.76H813.902V216.24H850.141V239.76ZM813.162 239.76H777.663V216.24H813.162V239.76ZM775.444 239.76H739.944V216.24H775.444V239.76ZM739.205 239.76H702.966V216.24H739.205V239.76ZM702.226 239.76H665.987V216.24H702.226V239.76ZM665.247 239.76H629.008V216.24H665.247V239.76ZM628.269 239.76H592.769V216.24H628.269V239.76ZM590.55 239.76H555.051V216.24H590.55V239.76ZM554.311 239.76H518.072V216.24H554.311V239.76ZM517.332 239.76H481.093V216.24H517.332V239.76ZM480.354 239.76H444.114V216.24H480.354V239.76ZM443.375 239.76H407.875V216.24H443.375V239.76ZM405.657 239.76H370.157V216.24H405.657V239.76ZM369.417 239.76H333.178V216.24H369.417V239.76ZM369.417 240.24V263.28H333.178V240.24H369.417ZM369.417 264.72V287.76H333.178V264.72H369.417ZM369.417 288.24V311.76H333.178V288.24H369.417ZM369.417 312.24V335.76H333.178V312.24H369.417ZM369.417 336.24V359.76H333.178V336.24H369.417ZM369.417 360.24V383.28H333.178V360.24H369.417ZM369.417 384.72V407.76H333.178V384.72H369.417ZM369.417 408.24V431.76H333.178V408.24H369.417ZM369.417 432.24V455.76H333.178V432.24H369.417ZM369.417 456.24V479.76H333.178V456.24H369.417ZM369.417 480.24V503.28H333.178V480.24H369.417ZM369.417 504.72V527.76H333.178V504.72H369.417ZM369.417 528.24V551.76H333.178V528.24H369.417ZM370.157 528.24H405.657V551.76H370.157V528.24ZM407.875 528.24H443.375V551.76H407.875V528.24ZM444.114 528.24H480.354V551.76H444.114V528.24ZM481.093 528.24H517.332V551.76H481.093V528.24ZM518.072 528.24H554.311V551.76H518.072V528.24ZM555.051 528.24H590.55V551.76H555.051V528.24ZM592.769 528.24H628.269V551.76H592.769V528.24ZM629.008 528.24H665.247V551.76H629.008V528.24ZM665.987 528.24H702.226V551.76H665.987V528.24ZM702.966 528.24H739.205V551.76H702.966V528.24ZM739.944 528.24H775.444V551.76H739.944V528.24ZM777.663 528.24H813.162V551.76H777.663V528.24ZM813.902 528.24H850.141V551.76H813.902V528.24ZM850.88 528.24H887.12V551.76H850.88V528.24ZM887.859 528.24H924.098V551.76H887.859V528.24ZM924.838 528.24H960.338V551.76H924.838V528.24ZM962.556 528.24H998.056V551.76H962.556V528.24ZM998.795 528.24H1035.03V551.76H998.795V528.24ZM1035.77 528.24H1072.01V551.76H1035.77V528.24ZM1072.75 528.24H1108.99V551.76H1072.75V528.24ZM1109.73 528.24H1145.23V551.76H1109.73V528.24ZM1147.45 528.24H1182.95V551.76H1147.45V528.24ZM1183.69 528.24H1219.93V551.76H1183.69V528.24ZM1220.67 528.24H1256.91V551.76H1220.67V528.24ZM1257.65 528.24H1293.89V551.76H1257.65V528.24ZM1294.63 528.24H1330.12V551.76H1294.63V528.24ZM1332.34 528.24H1367.84V551.76H1332.34V528.24ZM1368.58 528.24H1404.82V551.76H1368.58V528.24ZM1368.58 527.76V504.72H1404.82V527.76H1368.58ZM1368.58 503.28V480.24H1404.82V503.28H1368.58ZM1368.58 479.76V456.24H1404.82V479.76H1368.58ZM1368.58 455.76V432.24H1404.82V455.76H1368.58ZM1368.58 431.76V408.24H1404.82V431.76H1368.58ZM1368.58 407.76V384.72H1404.82V407.76H1368.58ZM1368.58 383.28V360.24H1404.82V383.28H1368.58ZM1368.58 359.76V336.24H1404.82V359.76H1368.58ZM1368.58 335.76V312.24H1404.82V335.76H1368.58ZM1368.58 311.76V288.24H1404.82V311.76H1368.58ZM1368.58 287.76V264.72H1404.82V287.76H1368.58ZM1368.58 263.28V240.24H1404.82V263.28H1368.58ZM1368.58 239.76V216.24H1404.82V239.76H1368.58ZM1368.58 215.76V192.24H1404.82V215.76H1368.58ZM1367.84 215.76H1332.34V192.24H1367.84V215.76ZM1330.12 215.76H1294.63V192.24H1330.12V215.76ZM1293.89 215.76H1257.65V192.24H1293.89V215.76ZM1256.91 215.76H1220.67V192.24H1256.91V215.76ZM1219.93 215.76H1183.69V192.24H1219.93V215.76ZM1182.95 215.76H1147.45V192.24H1182.95V215.76ZM1145.23 215.76H1109.73V192.24H1145.23V215.76ZM1108.99 215.76H1072.75V192.24H1108.99V215.76ZM1072.01 215.76H1035.77V192.24H1072.01V215.76ZM1035.03 215.76H998.795V192.24H1035.03V215.76ZM998.056 215.76H962.556V192.24H998.056V215.76ZM960.338 215.76H924.838V192.24H960.338V215.76ZM924.098 215.76H887.859V192.24H924.098V215.76ZM887.12 215.76H850.88V192.24H887.12V215.76ZM850.141 215.76H813.902V192.24H850.141V215.76ZM813.162 215.76H777.663V192.24H813.162V215.76ZM775.444 215.76H739.944V192.24H775.444V215.76ZM739.205 215.76H702.966V192.24H739.205V215.76ZM702.226 215.76H665.987V192.24H702.226V215.76ZM665.247 215.76H629.008V192.24H665.247V215.76ZM628.269 215.76H592.769V192.24H628.269V215.76ZM590.55 215.76H555.051V192.24H590.55V215.76ZM554.311 215.76H518.072V192.24H554.311V215.76ZM517.332 215.76H481.093V192.24H517.332V215.76ZM480.354 215.76H444.114V192.24H480.354V215.76ZM443.375 215.76H407.875V192.24H443.375V215.76ZM405.657 215.76H370.157V192.24H405.657V215.76ZM369.417 215.76H333.178V192.24H369.417V215.76ZM332.439 215.76H296.2V192.24H332.439V215.76ZM332.439 216.24V239.76H296.2V216.24H332.439ZM332.439 240.24V263.28H296.2V240.24H332.439ZM332.439 264.72V287.76H296.2V264.72H332.439ZM332.439 288.24V311.76H296.2V288.24H332.439ZM332.439 312.24V335.76H296.2V312.24H332.439ZM332.439 336.24V359.76H296.2V336.24H332.439ZM332.439 360.24V383.28H296.2V360.24H332.439ZM332.439 384.72V407.76H296.2V384.72H332.439ZM332.439 408.24V431.76H296.2V408.24H332.439ZM332.439 432.24V455.76H296.2V432.24H332.439ZM332.439 456.24V479.76H296.2V456.24H332.439ZM332.439 480.24V503.28H296.2V480.24H332.439ZM332.439 504.72V527.76H296.2V504.72H332.439ZM332.439 528.24V551.76H296.2V528.24H332.439ZM332.439 552.24V575.76H296.2V552.24H332.439ZM333.178 552.24H369.417V575.76H333.178V552.24ZM370.157 552.24H405.657V575.76H370.157V552.24ZM407.875 552.24H443.375V575.76H407.875V552.24ZM444.114 552.24H480.354V575.76H444.114V552.24ZM481.093 552.24H517.332V575.76H481.093V552.24ZM518.072 552.24H554.311V575.76H518.072V552.24ZM555.051 552.24H590.55V575.76H555.051V552.24ZM592.769 552.24H628.269V575.76H592.769V552.24ZM629.008 552.24H665.247V575.76H629.008V552.24ZM665.987 552.24H702.226V575.76H665.987V552.24ZM702.966 552.24H739.205V575.76H702.966V552.24ZM739.944 552.24H775.444V575.76H739.944V552.24ZM777.663 552.24H813.162V575.76H777.663V552.24ZM813.902 552.24H850.141V575.76H813.902V552.24ZM850.88 552.24H887.12V575.76H850.88V552.24ZM887.859 552.24H924.098V575.76H887.859V552.24ZM924.838 552.24H960.338V575.76H924.838V552.24ZM962.556 552.24H998.056V575.76H962.556V552.24ZM998.795 552.24H1035.03V575.76H998.795V552.24ZM1035.77 552.24H1072.01V575.76H1035.77V552.24ZM1072.75 552.24H1108.99V575.76H1072.75V552.24ZM1109.73 552.24H1145.23V575.76H1109.73V552.24ZM1147.45 552.24H1182.95V575.76H1147.45V552.24ZM1183.69 552.24H1219.93V575.76H1183.69V552.24ZM1220.67 552.24H1256.91V575.76H1220.67V552.24ZM1257.65 552.24H1293.89V575.76H1257.65V552.24ZM1294.63 552.24H1330.12V575.76H1294.63V552.24ZM1332.34 552.24H1367.84V575.76H1332.34V552.24ZM1368.58 552.24H1404.82V575.76H1368.58V552.24ZM1405.56 552.24H1441.8V575.76H1405.56V552.24ZM1405.56 551.76V528.24H1441.8V551.76H1405.56ZM1405.56 527.76V504.72H1441.8V527.76H1405.56ZM1405.56 503.28V480.24H1441.8V503.28H1405.56ZM1405.56 479.76V456.24H1441.8V479.76H1405.56ZM1405.56 455.76V432.24H1441.8V455.76H1405.56ZM1405.56 431.76V408.24H1441.8V431.76H1405.56ZM1405.56 407.76V384.72H1441.8V407.76H1405.56ZM1405.56 383.28V360.24H1441.8V383.28H1405.56ZM1405.56 359.76V336.24H1441.8V359.76H1405.56ZM1405.56 335.76V312.24H1441.8V335.76H1405.56ZM1405.56 311.76V288.24H1441.8V311.76H1405.56ZM1405.56 287.76V264.72H1441.8V287.76H1405.56ZM1405.56 263.28V240.24H1441.8V263.28H1405.56ZM1405.56 239.76V216.24H1441.8V239.76H1405.56ZM1405.56 215.76V192.24H1441.8V215.76H1405.56ZM1405.56 191.76V168.24H1441.8V191.76H1405.56ZM1404.82 191.76H1368.58V168.24H1404.82V191.76ZM1367.84 191.76H1332.34V168.24H1367.84V191.76ZM1330.12 191.76H1294.63V168.24H1330.12V191.76ZM1293.89 191.76H1257.65V168.24H1293.89V191.76ZM1256.91 191.76H1220.67V168.24H1256.91V191.76ZM1219.93 191.76H1183.69V168.24H1219.93V191.76ZM1182.95 191.76H1147.45V168.24H1182.95V191.76ZM1145.23 191.76H1109.73V168.24H1145.23V191.76ZM1108.99 191.76H1072.75V168.24H1108.99V191.76ZM1072.01 191.76H1035.77V168.24H1072.01V191.76ZM1035.03 191.76H998.795V168.24H1035.03V191.76ZM998.056 191.76H962.556V168.24H998.056V191.76ZM960.338 191.76H924.838V168.24H960.338V191.76ZM924.098 191.76H887.859V168.24H924.098V191.76ZM887.12 191.76H850.88V168.24H887.12V191.76ZM850.141 191.76H813.902V168.24H850.141V191.76ZM813.162 191.76H777.663V168.24H813.162V191.76ZM775.444 191.76H739.944V168.24H775.444V191.76ZM739.205 191.76H702.966V168.24H739.205V191.76ZM702.226 191.76H665.987V168.24H702.226V191.76ZM665.247 191.76H629.008V168.24H665.247V191.76ZM628.269 191.76H592.769V168.24H628.269V191.76ZM590.55 191.76H555.051V168.24H590.55V191.76ZM554.311 191.76H518.072V168.24H554.311V191.76ZM517.332 191.76H481.093V168.24H517.332V191.76ZM480.354 191.76H444.114V168.24H480.354V191.76ZM443.375 191.76H407.875V168.24H443.375V191.76ZM405.657 191.76H370.157V168.24H405.657V191.76ZM369.417 191.76H333.178V168.24H369.417V191.76ZM332.439 191.76H296.2V168.24H332.439V191.76ZM295.46 191.76H259.221V168.24H295.46V191.76ZM295.46 192.24V215.76H259.221V192.24H295.46ZM295.46 216.24V239.76H259.221V216.24H295.46ZM295.46 240.24V263.28H259.221V240.24H295.46ZM295.46 264.72V287.76H259.221V264.72H295.46ZM295.46 288.24V311.76H259.221V288.24H295.46ZM295.46 312.24V335.76H259.221V312.24H295.46ZM295.46 336.24V359.76H259.221V336.24H295.46ZM295.46 360.24V383.28H259.221V360.24H295.46ZM295.46 384.72V407.76H259.221V384.72H295.46ZM295.46 408.24V431.76H259.221V408.24H295.46ZM295.46 432.24V455.76H259.221V432.24H295.46ZM295.46 456.24V479.76H259.221V456.24H295.46ZM295.46 480.24V503.28H259.221V480.24H295.46ZM295.46 504.72V527.76H259.221V504.72H295.46ZM295.46 528.24V551.76H259.221V528.24H295.46ZM295.46 552.24V575.76H259.221V552.24H295.46ZM295.46 576.24V599.76H259.221V576.24H295.46ZM296.2 576.24H332.439V599.76H296.2V576.24ZM333.178 576.24H369.417V599.76H333.178V576.24ZM370.157 576.24H405.657V599.76H370.157V576.24ZM407.875 576.24H443.375V599.76H407.875V576.24ZM444.114 576.24H480.354V599.76H444.114V576.24ZM481.093 576.24H517.332V599.76H481.093V576.24ZM518.072 576.24H554.311V599.76H518.072V576.24ZM555.051 576.24H590.55V599.76H555.051V576.24ZM592.769 576.24H628.269V599.76H592.769V576.24ZM629.008 576.24H665.247V599.76H629.008V576.24ZM665.987 576.24H702.226V599.76H665.987V576.24ZM702.966 576.24H739.205V599.76H702.966V576.24ZM739.944 576.24H775.444V599.76H739.944V576.24ZM777.663 576.24H813.162V599.76H777.663V576.24ZM813.902 576.24H850.141V599.76H813.902V576.24ZM850.88 576.24H887.12V599.76H850.88V576.24ZM887.859 576.24H924.098V599.76H887.859V576.24ZM924.838 576.24H960.338V599.76H924.838V576.24ZM962.556 576.24H998.056V599.76H962.556V576.24ZM998.795 576.24H1035.03V599.76H998.795V576.24ZM1035.77 576.24H1072.01V599.76H1035.77V576.24ZM1072.75 576.24H1108.99V599.76H1072.75V576.24ZM1109.73 576.24H1145.23V599.76H1109.73V576.24ZM1147.45 576.24H1182.95V599.76H1147.45V576.24ZM1183.69 576.24H1219.93V599.76H1183.69V576.24ZM1220.67 576.24H1256.91V599.76H1220.67V576.24ZM1257.65 576.24H1293.89V599.76H1257.65V576.24ZM1294.63 576.24H1330.12V599.76H1294.63V576.24ZM1332.34 576.24H1367.84V599.76H1332.34V576.24ZM1368.58 576.24H1404.82V599.76H1368.58V576.24ZM1405.56 576.24H1441.8V599.76H1405.56V576.24ZM1442.54 576.24H1478.78V599.76H1442.54V576.24ZM1442.54 575.76V552.24H1478.78V575.76H1442.54ZM1442.54 551.76V528.24H1478.78V551.76H1442.54ZM1442.54 527.76V504.72H1478.78V527.76H1442.54ZM1442.54 503.28V480.24H1478.78V503.28H1442.54ZM1442.54 479.76V456.24H1478.78V479.76H1442.54ZM1442.54 455.76V432.24H1478.78V455.76H1442.54ZM1442.54 431.76V408.24H1478.78V431.76H1442.54ZM1442.54 407.76V384.72H1478.78V407.76H1442.54ZM1442.54 383.28V360.24H1478.78V383.28H1442.54ZM1442.54 359.76V336.24H1478.78V359.76H1442.54ZM1442.54 335.76V312.24H1478.78V335.76H1442.54ZM1442.54 311.76V288.24H1478.78V311.76H1442.54ZM1442.54 287.76V264.72H1478.78V287.76H1442.54ZM1442.54 263.28V240.24H1478.78V263.28H1442.54ZM1442.54 239.76V216.24H1478.78V239.76H1442.54ZM1442.54 215.76V192.24H1478.78V215.76H1442.54ZM1442.54 191.76V168.24H1478.78V191.76H1442.54ZM1442.54 167.76V144.72H1478.78V167.76H1442.54ZM1441.8 167.76H1405.56V144.72H1441.8V167.76ZM1404.82 167.76H1368.58V144.72H1404.82V167.76ZM1367.84 167.76H1332.34V144.72H1367.84V167.76ZM1330.12 167.76H1294.63V144.72H1330.12V167.76ZM1293.89 167.76H1257.65V144.72H1293.89V167.76ZM1256.91 167.76H1220.67V144.72H1256.91V167.76ZM1219.93 167.76H1183.69V144.72H1219.93V167.76ZM1182.95 167.76H1147.45V144.72H1182.95V167.76ZM1145.23 167.76H1109.73V144.72H1145.23V167.76ZM1108.99 167.76H1072.75V144.72H1108.99V167.76ZM1072.01 167.76H1035.77V144.72H1072.01V167.76ZM1035.03 167.76H998.795V144.72H1035.03V167.76ZM998.056 167.76H962.556V144.72H998.056V167.76ZM960.338 167.76H924.838V144.72H960.338V167.76ZM924.098 167.76H887.859V144.72H924.098V167.76ZM887.12 167.76H850.88V144.72H887.12V167.76ZM850.141 167.76H813.902V144.72H850.141V167.76ZM813.162 167.76H777.663V144.72H813.162V167.76ZM775.444 167.76H739.944V144.72H775.444V167.76ZM739.205 167.76H702.966V144.72H739.205V167.76ZM702.226 167.76H665.987V144.72H702.226V167.76ZM665.247 167.76H629.008V144.72H665.247V167.76ZM628.269 167.76H592.769V144.72H628.269V167.76ZM590.55 167.76H555.051V144.72H590.55V167.76ZM554.311 167.76H518.072V144.72H554.311V167.76ZM517.332 167.76H481.093V144.72H517.332V167.76ZM480.354 167.76H444.114V144.72H480.354V167.76ZM443.375 167.76H407.875V144.72H443.375V167.76ZM405.657 167.76H370.157V144.72H405.657V167.76ZM369.417 167.76H333.178V144.72H369.417V167.76ZM332.439 167.76H296.2V144.72H332.439V167.76ZM295.46 167.76H259.221V144.72H295.46V167.76ZM258.481 167.76H222.982V144.72H258.481V167.76ZM258.481 168.24V191.76H222.982V168.24H258.481ZM258.481 192.24V215.76H222.982V192.24H258.481ZM258.481 216.24V239.76H222.982V216.24H258.481ZM258.481 240.24V263.28H222.982V240.24H258.481ZM258.481 264.72V287.76H222.982V264.72H258.481ZM258.481 288.24V311.76H222.982V288.24H258.481ZM258.481 312.24V335.76H222.982V312.24H258.481ZM258.481 336.24V359.76H222.982V336.24H258.481ZM258.481 360.24V383.28H222.982V360.24H258.481ZM258.481 384.72V407.76H222.982V384.72H258.481ZM258.481 408.24V431.76H222.982V408.24H258.481ZM258.481 432.24V455.76H222.982V432.24H258.481ZM258.481 456.24V479.76H222.982V456.24H258.481ZM258.481 480.24V503.28H222.982V480.24H258.481ZM258.481 504.72V527.76H222.982V504.72H258.481ZM258.481 528.24V551.76H222.982V528.24H258.481ZM258.481 552.24V575.76H222.982V552.24H258.481ZM258.481 576.24V599.76H222.982V576.24H258.481ZM258.481 600.24V623.28H222.982V600.24H258.481ZM259.221 600.24H295.46V623.28H259.221V600.24ZM296.2 600.24H332.439V623.28H296.2V600.24ZM333.178 600.24H369.417V623.28H333.178V600.24ZM370.157 600.24H405.657V623.28H370.157V600.24ZM407.875 600.24H443.375V623.28H407.875V600.24ZM444.114 600.24H480.354V623.28H444.114V600.24ZM481.093 600.24H517.332V623.28H481.093V600.24ZM518.072 600.24H554.311V623.28H518.072V600.24ZM555.051 600.24H590.55V623.28H555.051V600.24ZM592.769 600.24H628.269V623.28H592.769V600.24ZM629.008 600.24H665.247V623.28H629.008V600.24ZM665.987 600.24H702.226V623.28H665.987V600.24ZM702.966 600.24H739.205V623.28H702.966V600.24ZM739.944 600.24H775.444V623.28H739.944V600.24ZM777.663 600.24H813.162V623.28H777.663V600.24ZM813.902 600.24H850.141V623.28H813.902V600.24ZM850.88 600.24H887.12V623.28H850.88V600.24ZM887.859 600.24H924.098V623.28H887.859V600.24ZM924.838 600.24H960.338V623.28H924.838V600.24ZM962.556 600.24H998.056V623.28H962.556V600.24ZM998.795 600.24H1035.03V623.28H998.795V600.24ZM1035.77 600.24H1072.01V623.28H1035.77V600.24ZM1072.75 600.24H1108.99V623.28H1072.75V600.24ZM1109.73 600.24H1145.23V623.28H1109.73V600.24ZM1147.45 600.24H1182.95V623.28H1147.45V600.24ZM1183.69 600.24H1219.93V623.28H1183.69V600.24ZM1220.67 600.24H1256.91V623.28H1220.67V600.24ZM1257.65 600.24H1293.89V623.28H1257.65V600.24ZM1294.63 600.24H1330.12V623.28H1294.63V600.24ZM1332.34 600.24H1367.84V623.28H1332.34V600.24ZM1368.58 600.24H1404.82V623.28H1368.58V600.24ZM1405.56 600.24H1441.8V623.28H1405.56V600.24ZM1442.54 600.24H1478.78V623.28H1442.54V600.24ZM1479.52 600.24H1515.02V623.28H1479.52V600.24ZM1479.52 599.76V576.24H1515.02V599.76H1479.52ZM1479.52 575.76V552.24H1515.02V575.76H1479.52ZM1479.52 551.76V528.24H1515.02V551.76H1479.52ZM1479.52 527.76V504.72H1515.02V527.76H1479.52ZM1479.52 503.28V480.24H1515.02V503.28H1479.52ZM1479.52 479.76V456.24H1515.02V479.76H1479.52ZM1479.52 455.76V432.24H1515.02V455.76H1479.52ZM1479.52 431.76V408.24H1515.02V431.76H1479.52ZM1479.52 407.76V384.72H1515.02V407.76H1479.52ZM1479.52 383.28V360.24H1515.02V383.28H1479.52ZM1479.52 359.76V336.24H1515.02V359.76H1479.52ZM1479.52 335.76V312.24H1515.02V335.76H1479.52ZM1479.52 311.76V288.24H1515.02V311.76H1479.52ZM1479.52 287.76V264.72H1515.02V287.76H1479.52ZM1479.52 263.28V240.24H1515.02V263.28H1479.52ZM1479.52 239.76V216.24H1515.02V239.76H1479.52ZM1479.52 215.76V192.24H1515.02V215.76H1479.52ZM1479.52 191.76V168.24H1515.02V191.76H1479.52ZM1479.52 167.76V144.72H1515.02V167.76H1479.52ZM1479.52 143.28V120.24H1515.02V143.28H1479.52ZM1478.78 143.28H1442.54V120.24H1478.78V143.28ZM1441.8 143.28H1405.56V120.24H1441.8V143.28ZM1404.82 143.28H1368.58V120.24H1404.82V143.28ZM1367.84 143.28H1332.34V120.24H1367.84V143.28ZM1330.12 143.28H1294.63V120.24H1330.12V143.28ZM1293.89 143.28H1257.65V120.24H1293.89V143.28ZM1256.91 143.28H1220.67V120.24H1256.91V143.28ZM1219.93 143.28H1183.69V120.24H1219.93V143.28ZM1182.95 143.28H1147.45V120.24H1182.95V143.28ZM1145.23 143.28H1109.73V120.24H1145.23V143.28ZM1108.99 143.28H1072.75V120.24H1108.99V143.28ZM1072.01 143.28H1035.77V120.24H1072.01V143.28ZM1035.03 143.28H998.795V120.24H1035.03V143.28ZM998.056 143.28H962.556V120.24H998.056V143.28ZM960.338 143.28H924.838V120.24H960.338V143.28ZM924.098 143.28H887.859V120.24H924.098V143.28ZM887.12 143.28H850.88V120.24H887.12V143.28ZM850.141 143.28H813.902V120.24H850.141V143.28ZM813.162 143.28H777.663V120.24H813.162V143.28ZM775.444 143.28H739.944V120.24H775.444V143.28ZM739.205 143.28H702.966V120.24H739.205V143.28ZM702.226 143.28H665.987V120.24H702.226V143.28ZM665.247 143.28H629.008V120.24H665.247V143.28ZM628.269 143.28H592.769V120.24H628.269V143.28ZM590.55 143.28H555.051V120.24H590.55V143.28ZM554.311 143.28H518.072V120.24H554.311V143.28ZM517.332 143.28H481.093V120.24H517.332V143.28ZM480.354 143.28H444.114V120.24H480.354V143.28ZM443.375 143.28H407.875V120.24H443.375V143.28ZM405.657 143.28H370.157V120.24H405.657V143.28ZM369.417 143.28H333.178V120.24H369.417V143.28ZM332.439 143.28H296.2V120.24H332.439V143.28ZM295.46 143.28H259.221V120.24H295.46V143.28ZM258.481 143.28H222.982V120.24H258.481V143.28ZM220.763 143.28H185.263V120.24H220.763V143.28ZM220.763 144.72V167.76H185.263V144.72H220.763ZM220.763 168.24V191.76H185.263V168.24H220.763ZM220.763 192.24V215.76H185.263V192.24H220.763ZM220.763 216.24V239.76H185.263V216.24H220.763ZM220.763 240.24V263.28H185.263V240.24H220.763ZM220.763 264.72V287.76H185.263V264.72H220.763ZM220.763 288.24V311.76H185.263V288.24H220.763ZM220.763 312.24V335.76H185.263V312.24H220.763ZM220.763 336.24V359.76H185.263V336.24H220.763ZM220.763 360.24V383.28H185.263V360.24H220.763ZM220.763 384.72V407.76H185.263V384.72H220.763ZM220.763 408.24V431.76H185.263V408.24H220.763ZM220.763 432.24V455.76H185.263V432.24H220.763ZM220.763 456.24V479.76H185.263V456.24H220.763ZM220.763 480.24V503.28H185.263V480.24H220.763ZM220.763 504.72V527.76H185.263V504.72H220.763ZM220.763 528.24V551.76H185.263V528.24H220.763ZM220.763 552.24V575.76H185.263V552.24H220.763ZM220.763 576.24V599.76H185.263V576.24H220.763ZM220.763 600.24V623.28H185.263V600.24H220.763ZM220.763 624.72V647.76H185.263V624.72H220.763ZM222.982 624.72H258.481V647.76H222.982V624.72ZM259.221 624.72H295.46V647.76H259.221V624.72ZM296.2 624.72H332.439V647.76H296.2V624.72ZM333.178 624.72H369.417V647.76H333.178V624.72ZM370.157 624.72H405.657V647.76H370.157V624.72ZM407.875 624.72H443.375V647.76H407.875V624.72ZM444.114 624.72H480.354V647.76H444.114V624.72ZM481.093 624.72H517.332V647.76H481.093V624.72ZM518.072 624.72H554.311V647.76H518.072V624.72ZM555.051 624.72H590.55V647.76H555.051V624.72ZM592.769 624.72H628.269V647.76H592.769V624.72ZM629.008 624.72H665.247V647.76H629.008V624.72ZM665.987 624.72H702.226V647.76H665.987V624.72ZM702.966 624.72H739.205V647.76H702.966V624.72ZM739.944 624.72H775.444V647.76H739.944V624.72ZM777.663 624.72H813.162V647.76H777.663V624.72ZM813.902 624.72H850.141V647.76H813.902V624.72ZM850.88 624.72H887.12V647.76H850.88V624.72ZM887.859 624.72H924.098V647.76H887.859V624.72ZM924.838 624.72H960.338V647.76H924.838V624.72ZM962.556 624.72H998.056V647.76H962.556V624.72ZM998.795 624.72H1035.03V647.76H998.795V624.72ZM1035.77 624.72H1072.01V647.76H1035.77V624.72ZM1072.75 624.72H1108.99V647.76H1072.75V624.72ZM1109.73 624.72H1145.23V647.76H1109.73V624.72ZM1147.45 624.72H1182.95V647.76H1147.45V624.72ZM1183.69 624.72H1219.93V647.76H1183.69V624.72ZM1220.67 624.72H1256.91V647.76H1220.67V624.72ZM1257.65 624.72H1293.89V647.76H1257.65V624.72ZM1294.63 624.72H1330.12V647.76H1294.63V624.72ZM1332.34 624.72H1367.84V647.76H1332.34V624.72ZM1368.58 624.72H1404.82V647.76H1368.58V624.72ZM1405.56 624.72H1441.8V647.76H1405.56V624.72ZM1442.54 624.72H1478.78V647.76H1442.54V624.72ZM1479.52 624.72H1515.02V647.76H1479.52V624.72ZM1517.24 624.72H1552.74V647.76H1517.24V624.72ZM1517.24 623.28V600.24H1552.74V623.28H1517.24ZM1517.24 599.76V576.24H1552.74V599.76H1517.24ZM1517.24 575.76V552.24H1552.74V575.76H1517.24ZM1517.24 551.76V528.24H1552.74V551.76H1517.24ZM1517.24 527.76V504.72H1552.74V527.76H1517.24ZM1517.24 503.28V480.24H1552.74V503.28H1517.24ZM1517.24 479.76V456.24H1552.74V479.76H1517.24ZM1517.24 455.76V432.24H1552.74V455.76H1517.24ZM1517.24 431.76V408.24H1552.74V431.76H1517.24ZM1517.24 407.76V384.72H1552.74V407.76H1517.24ZM1517.24 383.28V360.24H1552.74V383.28H1517.24ZM1517.24 359.76V336.24H1552.74V359.76H1517.24ZM1517.24 335.76V312.24H1552.74V335.76H1517.24ZM1517.24 311.76V288.24H1552.74V311.76H1517.24ZM1517.24 287.76V264.72H1552.74V287.76H1517.24ZM1517.24 263.28V240.24H1552.74V263.28H1517.24ZM1517.24 239.76V216.24H1552.74V239.76H1517.24ZM1517.24 215.76V192.24H1552.74V215.76H1517.24ZM1517.24 191.76V168.24H1552.74V191.76H1517.24ZM1517.24 167.76V144.72H1552.74V167.76H1517.24ZM1517.24 143.28V120.24H1552.74V143.28H1517.24ZM1517.24 119.76V96.24H1552.74V119.76H1517.24ZM1515.02 119.76H1479.52V96.24H1515.02V119.76ZM1478.78 119.76H1442.54V96.24H1478.78V119.76ZM1441.8 119.76H1405.56V96.24H1441.8V119.76ZM1404.82 119.76H1368.58V96.24H1404.82V119.76ZM1367.84 119.76H1332.34V96.24H1367.84V119.76ZM1330.12 119.76H1294.63V96.24H1330.12V119.76ZM1293.89 119.76H1257.65V96.24H1293.89V119.76ZM1256.91 119.76H1220.67V96.24H1256.91V119.76ZM1219.93 119.76H1183.69V96.24H1219.93V119.76ZM1182.95 119.76H1147.45V96.24H1182.95V119.76ZM1145.23 119.76H1109.73V96.24H1145.23V119.76ZM1108.99 119.76H1072.75V96.24H1108.99V119.76ZM1072.01 119.76H1035.77V96.24H1072.01V119.76ZM1035.03 119.76H998.795V96.24H1035.03V119.76ZM998.056 119.76H962.556V96.24H998.056V119.76ZM960.338 119.76H924.838V96.24H960.338V119.76ZM924.098 119.76H887.859V96.24H924.098V119.76ZM887.12 119.76H850.88V96.24H887.12V119.76ZM850.141 119.76H813.902V96.24H850.141V119.76ZM813.162 119.76H777.663V96.24H813.162V119.76ZM775.444 119.76H739.944V96.24H775.444V119.76ZM739.205 119.76H702.966V96.24H739.205V119.76ZM702.226 119.76H665.987V96.24H702.226V119.76ZM665.247 119.76H629.008V96.24H665.247V119.76ZM628.269 119.76H592.769V96.24H628.269V119.76ZM590.55 119.76H555.051V96.24H590.55V119.76ZM554.311 119.76H518.072V96.24H554.311V119.76ZM517.332 119.76H481.093V96.24H517.332V119.76ZM480.354 119.76H444.114V96.24H480.354V119.76ZM443.375 119.76H407.875V96.24H443.375V119.76ZM405.657 119.76H370.157V96.24H405.657V119.76ZM369.417 119.76H333.178V96.24H369.417V119.76ZM332.439 119.76H296.2V96.24H332.439V119.76ZM295.46 119.76H259.221V96.24H295.46V119.76ZM258.481 119.76H222.982V96.24H258.481V119.76ZM220.763 119.76H185.263V96.24H220.763V119.76ZM184.524 119.76H148.285V96.24H184.524V119.76ZM184.524 120.24V143.28H148.285V120.24H184.524ZM184.524 144.72V167.76H148.285V144.72H184.524ZM184.524 168.24V191.76H148.285V168.24H184.524ZM184.524 192.24V215.76H148.285V192.24H184.524ZM184.524 216.24V239.76H148.285V216.24H184.524ZM184.524 240.24V263.28H148.285V240.24H184.524ZM184.524 264.72V287.76H148.285V264.72H184.524ZM184.524 288.24V311.76H148.285V288.24H184.524ZM184.524 312.24V335.76H148.285V312.24H184.524ZM184.524 336.24V359.76H148.285V336.24H184.524ZM184.524 360.24V383.28H148.285V360.24H184.524ZM184.524 384.72V407.76H148.285V384.72H184.524ZM184.524 408.24V431.76H148.285V408.24H184.524ZM184.524 432.24V455.76H148.285V432.24H184.524ZM184.524 456.24V479.76H148.285V456.24H184.524ZM184.524 480.24V503.28H148.285V480.24H184.524ZM184.524 504.72V527.76H148.285V504.72H184.524ZM184.524 528.24V551.76H148.285V528.24H184.524ZM184.524 552.24V575.76H148.285V552.24H184.524ZM184.524 576.24V599.76H148.285V576.24H184.524ZM184.524 600.24V623.28H148.285V600.24H184.524ZM184.524 624.72V647.76H148.285V624.72H184.524ZM184.524 648.24V671.76H148.285V648.24H184.524ZM185.263 648.24H220.763V671.76H185.263V648.24ZM222.982 648.24H258.481V671.76H222.982V648.24ZM259.221 648.24H295.46V671.76H259.221V648.24ZM296.2 648.24H332.439V671.76H296.2V648.24ZM333.178 648.24H369.417V671.76H333.178V648.24ZM370.157 648.24H405.657V671.76H370.157V648.24ZM407.875 648.24H443.375V671.76H407.875V648.24ZM444.114 648.24H480.354V671.76H444.114V648.24ZM481.093 648.24H517.332V671.76H481.093V648.24ZM518.072 648.24H554.311V671.76H518.072V648.24ZM555.051 648.24H590.55V671.76H555.051V648.24ZM592.769 648.24H628.269V671.76H592.769V648.24ZM629.008 648.24H665.247V671.76H629.008V648.24ZM665.987 648.24H702.226V671.76H665.987V648.24ZM702.966 648.24H739.205V671.76H702.966V648.24ZM739.944 648.24H775.444V671.76H739.944V648.24ZM777.663 648.24H813.162V671.76H777.663V648.24ZM813.902 648.24H850.141V671.76H813.902V648.24ZM850.88 648.24H887.12V671.76H850.88V648.24ZM887.859 648.24H924.098V671.76H887.859V648.24ZM924.838 648.24H960.338V671.76H924.838V648.24ZM962.556 648.24H998.056V671.76H962.556V648.24ZM998.795 648.24H1035.03V671.76H998.795V648.24ZM1035.77 648.24H1072.01V671.76H1035.77V648.24ZM1072.75 648.24H1108.99V671.76H1072.75V648.24ZM1109.73 648.24H1145.23V671.76H1109.73V648.24ZM1147.45 648.24H1182.95V671.76H1147.45V648.24ZM1183.69 648.24H1219.93V671.76H1183.69V648.24ZM1220.67 648.24H1256.91V671.76H1220.67V648.24ZM1257.65 648.24H1293.89V671.76H1257.65V648.24ZM1294.63 648.24H1330.12V671.76H1294.63V648.24ZM1332.34 648.24H1367.84V671.76H1332.34V648.24ZM1368.58 648.24H1404.82V671.76H1368.58V648.24ZM1405.56 648.24H1441.8V671.76H1405.56V648.24ZM1442.54 648.24H1478.78V671.76H1442.54V648.24ZM1479.52 648.24H1515.02V671.76H1479.52V648.24ZM1517.24 648.24H1552.74V671.76H1517.24V648.24ZM1553.48 648.24H1589.72V671.76H1553.48V648.24ZM1553.48 647.76V624.72H1589.72V647.76H1553.48ZM1553.48 623.28V600.24H1589.72V623.28H1553.48ZM1553.48 599.76V576.24H1589.72V599.76H1553.48ZM1553.48 575.76V552.24H1589.72V575.76H1553.48ZM1553.48 551.76V528.24H1589.72V551.76H1553.48ZM1553.48 527.76V504.72H1589.72V527.76H1553.48ZM1553.48 503.28V480.24H1589.72V503.28H1553.48ZM1553.48 479.76V456.24H1589.72V479.76H1553.48ZM1553.48 455.76V432.24H1589.72V455.76H1553.48ZM1553.48 431.76V408.24H1589.72V431.76H1553.48ZM1553.48 407.76V384.72H1589.72V407.76H1553.48ZM1553.48 383.28V360.24H1589.72V383.28H1553.48ZM1553.48 359.76V336.24H1589.72V359.76H1553.48ZM1553.48 335.76V312.24H1589.72V335.76H1553.48ZM1553.48 311.76V288.24H1589.72V311.76H1553.48ZM1553.48 287.76V264.72H1589.72V287.76H1553.48ZM1553.48 263.28V240.24H1589.72V263.28H1553.48ZM1553.48 239.76V216.24H1589.72V239.76H1553.48ZM1553.48 215.76V192.24H1589.72V215.76H1553.48ZM1553.48 191.76V168.24H1589.72V191.76H1553.48ZM1553.48 167.76V144.72H1589.72V167.76H1553.48ZM1553.48 143.28V120.24H1589.72V143.28H1553.48ZM1553.48 119.76V96.24H1589.72V119.76H1553.48ZM1553.48 95.76V72.24H1589.72V95.76H1553.48ZM1552.74 95.76H1517.24V72.24H1552.74V95.76ZM1515.02 95.76H1479.52V72.24H1515.02V95.76ZM1478.78 95.76H1442.54V72.24H1478.78V95.76ZM1441.8 95.76H1405.56V72.24H1441.8V95.76ZM1404.82 95.76H1368.58V72.24H1404.82V95.76ZM1367.84 95.76H1332.34V72.24H1367.84V95.76ZM1330.12 95.76H1294.63V72.24H1330.12V95.76ZM1293.89 95.76H1257.65V72.24H1293.89V95.76ZM1256.91 95.76H1220.67V72.24H1256.91V95.76ZM1219.93 95.76H1183.69V72.24H1219.93V95.76ZM1182.95 95.76H1147.45V72.24H1182.95V95.76ZM1145.23 95.76H1109.73V72.24H1145.23V95.76ZM1108.99 95.76H1072.75V72.24H1108.99V95.76ZM1072.01 95.76H1035.77V72.24H1072.01V95.76ZM1035.03 95.76H998.795V72.24H1035.03V95.76ZM998.056 95.76H962.556V72.24H998.056V95.76ZM960.338 95.76H924.838V72.24H960.338V95.76ZM924.098 95.76H887.859V72.24H924.098V95.76ZM887.12 95.76H850.88V72.24H887.12V95.76ZM850.141 95.76H813.902V72.24H850.141V95.76ZM813.162 95.76H777.663V72.24H813.162V95.76ZM775.444 95.76H739.944V72.24H775.444V95.76ZM739.205 95.76H702.966V72.24H739.205V95.76ZM702.226 95.76H665.987V72.24H702.226V95.76ZM665.247 95.76H629.008V72.24H665.247V95.76ZM628.269 95.76H592.769V72.24H628.269V95.76ZM590.55 95.76H555.051V72.24H590.55V95.76ZM554.311 95.76H518.072V72.24H554.311V95.76ZM517.332 95.76H481.093V72.24H517.332V95.76ZM480.354 95.76H444.114V72.24H480.354V95.76ZM443.375 95.76H407.875V72.24H443.375V95.76ZM405.657 95.76H370.157V72.24H405.657V95.76ZM369.417 95.76H333.178V72.24H369.417V95.76ZM332.439 95.76H296.2V72.24H332.439V95.76ZM295.46 95.76H259.221V72.24H295.46V95.76ZM258.481 95.76H222.982V72.24H258.481V95.76ZM220.763 95.76H185.263V72.24H220.763V95.76ZM184.524 95.76H148.285V72.24H184.524V95.76ZM147.545 95.76H111.306V72.24H147.545V95.76ZM147.545 96.24V119.76H111.306V96.24H147.545ZM147.545 120.24V143.28H111.306V120.24H147.545ZM147.545 144.72V167.76H111.306V144.72H147.545ZM147.545 168.24V191.76H111.306V168.24H147.545ZM147.545 192.24V215.76H111.306V192.24H147.545ZM147.545 216.24V239.76H111.306V216.24H147.545ZM147.545 240.24V263.28H111.306V240.24H147.545ZM147.545 264.72V287.76H111.306V264.72H147.545ZM147.545 288.24V311.76H111.306V288.24H147.545ZM147.545 312.24V335.76H111.306V312.24H147.545ZM147.545 336.24V359.76H111.306V336.24H147.545ZM147.545 360.24V383.28H111.306V360.24H147.545ZM147.545 384.72V407.76H111.306V384.72H147.545ZM147.545 408.24V431.76H111.306V408.24H147.545ZM147.545 432.24V455.76H111.306V432.24H147.545ZM147.545 456.24V479.76H111.306V456.24H147.545ZM147.545 480.24V503.28H111.306V480.24H147.545ZM147.545 504.72V527.76H111.306V504.72H147.545ZM147.545 528.24V551.76H111.306V528.24H147.545ZM147.545 552.24V575.76H111.306V552.24H147.545ZM147.545 576.24V599.76H111.306V576.24H147.545ZM147.545 600.24V623.28H111.306V600.24H147.545ZM147.545 624.72V647.76H111.306V624.72H147.545ZM147.545 648.24V671.76H111.306V648.24H147.545ZM147.545 672.24V695.76H111.306V672.24H147.545ZM148.285 672.24H184.524V695.76H148.285V672.24ZM185.263 672.24H220.763V695.76H185.263V672.24ZM222.982 672.24H258.481V695.76H222.982V672.24ZM259.221 672.24H295.46V695.76H259.221V672.24ZM296.2 672.24H332.439V695.76H296.2V672.24ZM333.178 672.24H369.417V695.76H333.178V672.24ZM370.157 672.24H405.657V695.76H370.157V672.24ZM407.875 672.24H443.375V695.76H407.875V672.24ZM444.114 672.24H480.354V695.76H444.114V672.24ZM481.093 672.24H517.332V695.76H481.093V672.24ZM518.072 672.24H554.311V695.76H518.072V672.24ZM555.051 672.24H590.55V695.76H555.051V672.24ZM592.769 672.24H628.269V695.76H592.769V672.24ZM629.008 672.24H665.247V695.76H629.008V672.24ZM665.987 672.24H702.226V695.76H665.987V672.24ZM702.966 672.24H739.205V695.76H702.966V672.24ZM739.944 672.24H775.444V695.76H739.944V672.24ZM777.663 672.24H813.162V695.76H777.663V672.24ZM813.902 672.24H850.141V695.76H813.902V672.24ZM850.88 672.24H887.12V695.76H850.88V672.24ZM887.859 672.24H924.098V695.76H887.859V672.24ZM924.838 672.24H960.338V695.76H924.838V672.24ZM962.556 672.24H998.056V695.76H962.556V672.24ZM998.795 672.24H1035.03V695.76H998.795V672.24ZM1035.77 672.24H1072.01V695.76H1035.77V672.24ZM1072.75 672.24H1108.99V695.76H1072.75V672.24ZM1109.73 672.24H1145.23V695.76H1109.73V672.24ZM1147.45 672.24H1182.95V695.76H1147.45V672.24ZM1183.69 672.24H1219.93V695.76H1183.69V672.24ZM1220.67 672.24H1256.91V695.76H1220.67V672.24ZM1257.65 672.24H1293.89V695.76H1257.65V672.24ZM1294.63 672.24H1330.12V695.76H1294.63V672.24ZM1332.34 672.24H1367.84V695.76H1332.34V672.24ZM1368.58 672.24H1404.82V695.76H1368.58V672.24ZM1405.56 672.24H1441.8V695.76H1405.56V672.24ZM1442.54 672.24H1478.78V695.76H1442.54V672.24ZM1479.52 672.24H1515.02V695.76H1479.52V672.24ZM1517.24 672.24H1552.74V695.76H1517.24V672.24ZM1553.48 672.24H1589.72V695.76H1553.48V672.24ZM1590.45 672.24H1626.69V695.76H1590.45V672.24ZM1590.45 671.76V648.24H1626.69V671.76H1590.45ZM1590.45 647.76V624.72H1626.69V647.76H1590.45ZM1590.45 623.28V600.24H1626.69V623.28H1590.45ZM1590.45 599.76V576.24H1626.69V599.76H1590.45ZM1590.45 575.76V552.24H1626.69V575.76H1590.45ZM1590.45 551.76V528.24H1626.69V551.76H1590.45ZM1590.45 527.76V504.72H1626.69V527.76H1590.45ZM1590.45 503.28V480.24H1626.69V503.28H1590.45ZM1590.45 479.76V456.24H1626.69V479.76H1590.45ZM1590.45 455.76V432.24H1626.69V455.76H1590.45ZM1590.45 431.76V408.24H1626.69V431.76H1590.45ZM1590.45 407.76V384.72H1626.69V407.76H1590.45ZM1590.45 383.28V360.24H1626.69V383.28H1590.45ZM1590.45 359.76V336.24H1626.69V359.76H1590.45ZM1590.45 335.76V312.24H1626.69V335.76H1590.45ZM1590.45 311.76V288.24H1626.69V311.76H1590.45ZM1590.45 287.76V264.72H1626.69V287.76H1590.45ZM1590.45 263.28V240.24H1626.69V263.28H1590.45ZM1590.45 239.76V216.24H1626.69V239.76H1590.45ZM1590.45 215.76V192.24H1626.69V215.76H1590.45ZM1590.45 191.76V168.24H1626.69V191.76H1590.45ZM1590.45 167.76V144.72H1626.69V167.76H1590.45ZM1590.45 143.28V120.24H1626.69V143.28H1590.45ZM1590.45 119.76V96.24H1626.69V119.76H1590.45ZM1590.45 95.76V72.24H1626.69V95.76H1590.45ZM1590.45 71.76V48.24H1626.69V71.76H1590.45ZM1589.72 71.76H1553.48V48.24H1589.72V71.76ZM1552.74 71.76H1517.24V48.24H1552.74V71.76ZM1515.02 71.76H1479.52V48.24H1515.02V71.76ZM1478.78 71.76H1442.54V48.24H1478.78V71.76ZM1441.8 71.76H1405.56V48.24H1441.8V71.76ZM1404.82 71.76H1368.58V48.24H1404.82V71.76ZM1367.84 71.76H1332.34V48.24H1367.84V71.76ZM1330.12 71.76H1294.63V48.24H1330.12V71.76ZM1293.89 71.76H1257.65V48.24H1293.89V71.76ZM1256.91 71.76H1220.67V48.24H1256.91V71.76ZM1219.93 71.76H1183.69V48.24H1219.93V71.76ZM1182.95 71.76H1147.45V48.24H1182.95V71.76ZM1145.23 71.76H1109.73V48.24H1145.23V71.76ZM1108.99 71.76H1072.75V48.24H1108.99V71.76ZM1072.01 71.76H1035.77V48.24H1072.01V71.76ZM1035.03 71.76H998.795V48.24H1035.03V71.76ZM998.056 71.76H962.556V48.24H998.056V71.76ZM960.338 71.76H924.838V48.24H960.338V71.76ZM924.098 71.76H887.859V48.24H924.098V71.76ZM887.12 71.76H850.88V48.24H887.12V71.76ZM850.141 71.76H813.902V48.24H850.141V71.76ZM813.162 71.76H777.663V48.24H813.162V71.76ZM775.444 71.76H739.944V48.24H775.444V71.76ZM739.205 71.76H702.966V48.24H739.205V71.76ZM702.226 71.76H665.987V48.24H702.226V71.76ZM665.247 71.76H629.008V48.24H665.247V71.76ZM628.269 71.76H592.769V48.24H628.269V71.76ZM590.55 71.76H555.051V48.24H590.55V71.76ZM554.311 71.76H518.072V48.24H554.311V71.76ZM517.332 71.76H481.093V48.24H517.332V71.76ZM480.354 71.76H444.114V48.24H480.354V71.76ZM443.375 71.76H407.875V48.24H443.375V71.76ZM405.657 71.76H370.157V48.24H405.657V71.76ZM369.417 71.76H333.178V48.24H369.417V71.76ZM332.439 71.76H296.2V48.24H332.439V71.76ZM295.46 71.76H259.221V48.24H295.46V71.76ZM258.481 71.76H222.982V48.24H258.481V71.76ZM220.763 71.76H185.263V48.24H220.763V71.76ZM184.524 71.76H148.285V48.24H184.524V71.76ZM147.545 71.76H111.306V48.24H147.545V71.76ZM110.566 71.76H74.3272V48.24H110.566V71.76ZM110.566 72.24V95.76H74.3272V72.24H110.566ZM110.566 96.24V119.76H74.3272V96.24H110.566ZM110.566 120.24V143.28H74.3272V120.24H110.566ZM110.566 144.72V167.76H74.3272V144.72H110.566ZM110.566 168.24V191.76H74.3272V168.24H110.566ZM110.566 192.24V215.76H74.3272V192.24H110.566ZM110.566 216.24V239.76H74.3272V216.24H110.566ZM110.566 240.24V263.28H74.3272V240.24H110.566ZM110.566 264.72V287.76H74.3272V264.72H110.566ZM110.566 288.24V311.76H74.3272V288.24H110.566ZM110.566 312.24V335.76H74.3272V312.24H110.566ZM110.566 336.24V359.76H74.3272V336.24H110.566ZM110.566 360.24V383.28H74.3272V360.24H110.566ZM110.566 384.72V407.76H74.3272V384.72H110.566ZM110.566 408.24V431.76H74.3272V408.24H110.566ZM110.566 432.24V455.76H74.3272V432.24H110.566ZM110.566 456.24V479.76H74.3272V456.24H110.566ZM110.566 480.24V503.28H74.3272V480.24H110.566ZM110.566 504.72V527.76H74.3272V504.72H110.566ZM110.566 528.24V551.76H74.3272V528.24H110.566ZM110.566 552.24V575.76H74.3272V552.24H110.566ZM110.566 576.24V599.76H74.3272V576.24H110.566ZM110.566 600.24V623.28H74.3272V600.24H110.566ZM110.566 624.72V647.76H74.3272V624.72H110.566ZM110.566 648.24V671.76H74.3272V648.24H110.566ZM110.566 672.24V695.76H74.3272V672.24H110.566ZM110.566 696.24V719.76H74.3272V696.24H110.566ZM111.306 696.24H147.545V719.76H111.306V696.24ZM148.285 696.24H184.524V719.76H148.285V696.24ZM185.263 696.24H220.763V719.76H185.263V696.24ZM222.982 696.24H258.481V719.76H222.982V696.24ZM259.221 696.24H295.46V719.76H259.221V696.24ZM296.2 696.24H332.439V719.76H296.2V696.24ZM333.178 696.24H369.417V719.76H333.178V696.24ZM370.157 696.24H405.657V719.76H370.157V696.24ZM407.875 696.24H443.375V719.76H407.875V696.24ZM444.114 696.24H480.354V719.76H444.114V696.24ZM481.093 696.24H517.332V719.76H481.093V696.24ZM518.072 696.24H554.311V719.76H518.072V696.24ZM555.051 696.24H590.55V719.76H555.051V696.24ZM592.769 696.24H628.269V719.76H592.769V696.24ZM629.008 696.24H665.247V719.76H629.008V696.24ZM665.987 696.24H702.226V719.76H665.987V696.24ZM702.966 696.24H739.205V719.76H702.966V696.24ZM739.944 696.24H775.444V719.76H739.944V696.24ZM777.663 696.24H813.162V719.76H777.663V696.24ZM813.902 696.24H850.141V719.76H813.902V696.24ZM850.88 696.24H887.12V719.76H850.88V696.24ZM887.859 696.24H924.098V719.76H887.859V696.24ZM924.838 696.24H960.338V719.76H924.838V696.24ZM962.556 696.24H998.056V719.76H962.556V696.24ZM998.795 696.24H1035.03V719.76H998.795V696.24ZM1035.77 696.24H1072.01V719.76H1035.77V696.24ZM1072.75 696.24H1108.99V719.76H1072.75V696.24ZM1109.73 696.24H1145.23V719.76H1109.73V696.24ZM1147.45 696.24H1182.95V719.76H1147.45V696.24ZM1183.69 696.24H1219.93V719.76H1183.69V696.24ZM1220.67 696.24H1256.91V719.76H1220.67V696.24ZM1257.65 696.24H1293.89V719.76H1257.65V696.24ZM1294.63 696.24H1330.12V719.76H1294.63V696.24ZM1332.34 696.24H1367.84V719.76H1332.34V696.24ZM1368.58 696.24H1404.82V719.76H1368.58V696.24ZM1405.56 696.24H1441.8V719.76H1405.56V696.24ZM1442.54 696.24H1478.78V719.76H1442.54V696.24ZM1479.52 696.24H1515.02V719.76H1479.52V696.24ZM1517.24 696.24H1552.74V719.76H1517.24V696.24ZM1553.48 696.24H1589.72V719.76H1553.48V696.24ZM1590.45 696.24H1626.69V719.76H1590.45V696.24ZM1627.43 696.24H1663.67V719.76H1627.43V696.24ZM1627.43 695.76V672.24H1663.67V695.76H1627.43ZM1627.43 671.76V648.24H1663.67V671.76H1627.43ZM1627.43 647.76V624.72H1663.67V647.76H1627.43ZM1627.43 623.28V600.24H1663.67V623.28H1627.43ZM1627.43 599.76V576.24H1663.67V599.76H1627.43ZM1627.43 575.76V552.24H1663.67V575.76H1627.43ZM1627.43 551.76V528.24H1663.67V551.76H1627.43ZM1627.43 527.76V504.72H1663.67V527.76H1627.43ZM1627.43 503.28V480.24H1663.67V503.28H1627.43ZM1627.43 479.76V456.24H1663.67V479.76H1627.43ZM1627.43 455.76V432.24H1663.67V455.76H1627.43ZM1627.43 431.76V408.24H1663.67V431.76H1627.43ZM1627.43 407.76V384.72H1663.67V407.76H1627.43ZM1627.43 383.28V360.24H1663.67V383.28H1627.43ZM1627.43 359.76V336.24H1663.67V359.76H1627.43ZM1627.43 335.76V312.24H1663.67V335.76H1627.43ZM1627.43 311.76V288.24H1663.67V311.76H1627.43ZM1627.43 287.76V264.72H1663.67V287.76H1627.43ZM1627.43 263.28V240.24H1663.67V263.28H1627.43ZM1627.43 239.76V216.24H1663.67V239.76H1627.43ZM1627.43 215.76V192.24H1663.67V215.76H1627.43ZM1627.43 191.76V168.24H1663.67V191.76H1627.43ZM1627.43 167.76V144.72H1663.67V167.76H1627.43ZM1627.43 143.28V120.24H1663.67V143.28H1627.43ZM1627.43 119.76V96.24H1663.67V119.76H1627.43ZM1627.43 95.76V72.24H1663.67V95.76H1627.43ZM1627.43 71.76V48.24H1663.67V71.76H1627.43ZM1626.69 24.72V47.76H1590.45V24.72H1626.69ZM1589.72 24.72V47.76H1553.48V24.72H1589.72ZM1552.74 24.72V47.76H1517.24V24.72H1552.74ZM1515.02 24.72V47.76H1479.52V24.72H1515.02ZM1478.78 24.72V47.76H1442.54V24.72H1478.78ZM1441.8 24.72V47.76H1405.56V24.72H1441.8ZM1404.82 24.72V47.76H1368.58V24.72H1404.82ZM1367.84 24.72V47.76H1332.34V24.72H1367.84ZM1330.12 24.72V47.76H1294.63V24.72H1330.12ZM1293.89 24.72V47.76H1257.65V24.72H1293.89ZM1256.91 24.72V47.76H1220.67V24.72H1256.91ZM1219.93 24.72V47.76H1183.69V24.72H1219.93ZM1182.95 24.72V47.76H1147.45V24.72H1182.95ZM1145.23 24.72V47.76H1109.73V24.72H1145.23ZM1108.99 24.72V47.76H1072.75V24.72H1108.99ZM1072.01 24.72V47.76H1035.77V24.72H1072.01ZM1035.03 24.72V47.76H998.795V24.72H1035.03ZM998.056 24.72V47.76H962.556V24.72H998.056ZM960.338 24.72V47.76H924.838V24.72H960.338ZM924.098 24.72V47.76H887.859V24.72H924.098ZM887.12 24.72V47.76H850.88V24.72H887.12ZM850.141 24.72V47.76H813.902V24.72H850.141ZM813.162 24.72V47.76H777.663V24.72H813.162ZM775.444 24.72V47.76H739.944V24.72H775.444ZM739.205 24.72V47.76H702.966V24.72H739.205ZM702.226 24.72V47.76H665.987V24.72H702.226ZM665.247 24.72V47.76H629.008V24.72H665.247ZM628.269 24.72V47.76H592.769V24.72H628.269ZM590.55 24.72V47.76H555.051V24.72H590.55ZM554.311 24.72V47.76H518.072V24.72H554.311ZM517.332 24.72V47.76H481.093V24.72H517.332ZM480.354 24.72V47.76H444.114V24.72H480.354ZM443.375 24.72V47.76H407.875V24.72H443.375ZM405.657 24.72V47.76H370.157V24.72H405.657ZM369.417 24.72V47.76H333.178V24.72H369.417ZM332.439 24.72V47.76H296.2V24.72H332.439ZM295.46 24.72V47.76H259.221V24.72H295.46ZM258.481 24.72V47.76H222.982V24.72H258.481ZM220.763 24.72V47.76H185.263V24.72H220.763ZM184.524 24.72V47.76H148.285V24.72H184.524ZM147.545 24.72V47.76H111.306V24.72H147.545ZM110.566 24.72V47.76H74.3272V24.72H110.566ZM38.0881 24.72H73.5877V47.76H38.0881V24.72ZM38.0881 48.24H73.5877V71.76H38.0881V48.24ZM38.0881 72.24H73.5877V95.76H38.0881V72.24ZM38.0881 96.24H73.5877V119.76H38.0881V96.24ZM38.0881 120.24H73.5877V143.28H38.0881V120.24ZM38.0881 144.72H73.5877V167.76H38.0881V144.72ZM38.0881 168.24H73.5877V191.76H38.0881V168.24ZM38.0881 192.24H73.5877V215.76H38.0881V192.24ZM38.0881 216.24H73.5877V239.76H38.0881V216.24ZM38.0881 240.24H73.5877V263.28H38.0881V240.24ZM38.0881 264.72H73.5877V287.76H38.0881V264.72ZM38.0881 288.24H73.5877V311.76H38.0881V288.24ZM38.0881 312.24H73.5877V335.76H38.0881V312.24ZM38.0881 336.24H73.5877V359.76H38.0881V336.24ZM38.0881 360.24H73.5877V383.28H38.0881V360.24ZM38.0881 384.72H73.5877V407.76H38.0881V384.72ZM38.0881 408.24H73.5877V431.76H38.0881V408.24ZM38.0881 432.24H73.5877V455.76H38.0881V432.24ZM38.0881 456.24H73.5877V479.76H38.0881V456.24ZM38.0881 480.24H73.5877V503.28H38.0881V480.24ZM38.0881 504.72H73.5877V527.76H38.0881V504.72ZM38.0881 528.24H73.5877V551.76H38.0881V528.24ZM38.0881 552.24H73.5877V575.76H38.0881V552.24ZM38.0881 576.24H73.5877V599.76H38.0881V576.24ZM38.0881 600.24H73.5877V623.28H38.0881V600.24ZM38.0881 624.72H73.5877V647.76H38.0881V624.72ZM38.0881 648.24H73.5877V671.76H38.0881V648.24ZM38.0881 672.24H73.5877V695.76H38.0881V672.24ZM38.0881 696.24H73.5877V719.76H38.0881V696.24ZM38.0881 743.28V720.24H73.5877V743.28H38.0881ZM74.3272 743.28V720.24H110.566V743.28H74.3272ZM111.306 743.28V720.24H147.545V743.28H111.306ZM148.285 743.28V720.24H184.524V743.28H148.285ZM185.263 743.28V720.24H220.763V743.28H185.263ZM222.982 743.28V720.24H258.481V743.28H222.982ZM259.221 743.28V720.24H295.46V743.28H259.221ZM296.2 743.28V720.24H332.439V743.28H296.2ZM333.178 743.28V720.24H369.417V743.28H333.178ZM370.157 743.28V720.24H405.657V743.28H370.157ZM407.875 743.28V720.24H443.375V743.28H407.875ZM444.114 743.28V720.24H480.354V743.28H444.114ZM481.093 743.28V720.24H517.332V743.28H481.093ZM518.072 743.28V720.24H554.311V743.28H518.072ZM555.051 743.28V720.24H590.55V743.28H555.051ZM592.769 743.28V720.24H628.269V743.28H592.769ZM629.008 743.28V720.24H665.247V743.28H629.008ZM665.987 743.28V720.24H702.226V743.28H665.987ZM702.966 743.28V720.24H739.205V743.28H702.966ZM739.944 743.28V720.24H775.444V743.28H739.944ZM777.663 743.28V720.24H813.162V743.28H777.663ZM813.902 743.28V720.24H850.141V743.28H813.902ZM850.88 743.28V720.24H887.12V743.28H850.88ZM887.859 743.28V720.24H924.098V743.28H887.859ZM924.838 743.28V720.24H960.338V743.28H924.838ZM962.556 743.28V720.24H998.056V743.28H962.556ZM998.795 743.28V720.24H1035.03V743.28H998.795ZM1035.77 743.28V720.24H1072.01V743.28H1035.77ZM1072.75 743.28V720.24H1108.99V743.28H1072.75ZM1109.73 743.28V720.24H1145.23V743.28H1109.73ZM1147.45 743.28V720.24H1182.95V743.28H1147.45ZM1183.69 743.28V720.24H1219.93V743.28H1183.69ZM1220.67 743.28V720.24H1256.91V743.28H1220.67ZM1257.65 743.28V720.24H1293.89V743.28H1257.65ZM1294.63 743.28V720.24H1330.12V743.28H1294.63ZM1332.34 743.28V720.24H1367.84V743.28H1332.34ZM1368.58 743.28V720.24H1404.82V743.28H1368.58ZM1405.56 743.28V720.24H1441.8V743.28H1405.56ZM1442.54 743.28V720.24H1478.78V743.28H1442.54ZM1479.52 743.28V720.24H1515.02V743.28H1479.52ZM1517.24 743.28V720.24H1552.74V743.28H1517.24ZM1553.48 743.28V720.24H1589.72V743.28H1553.48ZM1590.45 743.28V720.24H1626.69V743.28H1590.45ZM1627.43 743.28V720.24H1663.67V743.28H1627.43ZM1699.91 743.28H1664.41V720.24H1699.91V743.28ZM1699.91 719.76H1664.41V696.24H1699.91V719.76ZM1699.91 695.76H1664.41V672.24H1699.91V695.76ZM1699.91 671.76H1664.41V648.24H1699.91V671.76ZM1699.91 647.76H1664.41V624.72H1699.91V647.76ZM1699.91 623.28H1664.41V600.24H1699.91V623.28ZM1699.91 599.76H1664.41V576.24H1699.91V599.76ZM1699.91 575.76H1664.41V552.24H1699.91V575.76ZM1699.91 551.76H1664.41V528.24H1699.91V551.76ZM1699.91 527.76H1664.41V504.72H1699.91V527.76ZM1699.91 503.28H1664.41V480.24H1699.91V503.28ZM1699.91 479.76H1664.41V456.24H1699.91V479.76ZM1699.91 455.76H1664.41V432.24H1699.91V455.76ZM1699.91 431.76H1664.41V408.24H1699.91V431.76ZM1699.91 407.76H1664.41V384.72H1699.91V407.76ZM1699.91 383.28H1664.41V360.24H1699.91V383.28ZM1699.91 359.76H1664.41V336.24H1699.91V359.76ZM1699.91 335.76H1664.41V312.24H1699.91V335.76ZM1699.91 311.76H1664.41V288.24H1699.91V311.76ZM1699.91 287.76H1664.41V264.72H1699.91V287.76ZM1699.91 263.28H1664.41V240.24H1699.91V263.28ZM1699.91 239.76H1664.41V216.24H1699.91V239.76ZM1699.91 215.76H1664.41V192.24H1699.91V215.76ZM1699.91 191.76H1664.41V168.24H1699.91V191.76ZM1699.91 167.76H1664.41V144.72H1699.91V167.76ZM1699.91 143.28H1664.41V120.24H1699.91V143.28ZM1699.91 119.76H1664.41V96.24H1699.91V119.76ZM1699.91 95.76H1664.41V72.24H1699.91V95.76ZM1699.91 71.76H1664.41V48.24H1699.91V71.76ZM1699.91 47.76H1664.41V24.72H1699.91V47.76Z" fill="#E5E5E5" fill-opacity="0.05"/>
</g>
</svg>
