<svg preserveAspectRatio="none" overflow="visible" style="display: block;" width="20" height="20" viewBox="0 0 20 20" fill="none" xmlns="http://www.w3.org/2000/svg">
<g id="tap-08">
<path id="Vector" d="M6.48223 11.6308V7.91108M6.48223 7.91108V3.31515C6.48223 2.63216 7.05146 2.08171 7.73454 2.08171C8.41759 2.08171 8.95584 2.63216 8.95584 3.31515V6.64511M6.48223 7.91108C5.387 8.90344 4.20841 10.1571 4.0497 10.4782C3.31121 11.6022 3.38862 12.1464 4.21161 13.5217C4.91061 14.6899 5.85068 15.9862 5.90556 16.0484C6.46409 16.6813 6.35303 16.6814 7.16258 17.2757C7.88548 17.7774 9.38492 18.1269 12.9003 17.7774C15.7639 17.335 16.45 14.8356 16.4352 13.6411V10.6914C16.6135 8.23968 15.5887 8.12901 13.7277 7.88771M8.95584 6.64511V8.74811M8.95584 6.64511C9.42026 5.88787 11.1069 6.19389 11.4357 7.62383M11.4653 8.74477V7.91108C11.4653 7.84536 11.4621 7.77943 11.4528 7.71441C11.4493 7.69011 11.445 7.66593 11.4398 7.64194C11.4384 7.63588 11.437 7.62985 11.4357 7.62383M11.4357 7.62383C11.4391 7.65296 11.4448 7.68316 11.4528 7.71441M11.4357 7.62383C11.3189 6.62716 13.8448 6.87012 13.9475 8.62294V9.57552" stroke="#141B34" stroke-width="1.5" stroke-linecap="round"/>
</g>
</svg>
