<svg preserveAspectRatio="none" width="100%" height="100%" overflow="visible" style="display: block;" viewBox="0 0 37.4965 30.483" fill="none" xmlns="http://www.w3.org/2000/svg">
<g id="Group">
<path id="Vector" d="M32.1095 6.70417C31.8755 6.91874 31.5707 7.03963 31.2533 7.04375H1.20743C0.140763 7.04375 -0.396737 5.825 0.340763 5.11042L5.27618 0.352084C5.50549 0.129948 5.81111 0.00397344 6.13035 0H36.2908C37.3678 0 37.8949 1.22917 37.1449 1.94792L32.1095 6.70417Z" fill="url(#paint0_linear_0_40)"/>
<path id="Vector_2" d="M32.1095 30.1539C31.874 30.3647 31.5693 30.4818 31.2533 30.483H1.20743C0.140763 30.483 -0.396737 29.2747 0.340763 28.5601L5.27618 23.7893C5.50744 23.5717 5.81283 23.4503 6.13035 23.4497H36.2908C37.3678 23.4497 37.8949 24.6705 37.1449 25.383L32.1095 30.1539Z" fill="url(#paint1_linear_0_40)"/>
<path id="Vector_3" d="M32.1095 12.0601C31.874 11.8493 31.5693 11.7322 31.2533 11.731H1.20743C0.140763 11.731 -0.396737 12.9393 0.340763 13.6539L5.27618 18.4247C5.50743 18.6393 5.8116 18.758 6.13035 18.7643H36.2908C37.3678 18.7643 37.8949 17.5435 37.1449 16.831L32.1095 12.0601Z" fill="url(#paint2_linear_0_40)"/>
</g>
<defs>
<linearGradient id="paint0_linear_0_40" x1="0.00117943" y1="104.91" x2="38.4553" y2="104.556" gradientUnits="userSpaceOnUse">
<stop stop-color="#599DB0"/>
<stop offset="1" stop-color="#47F8C3"/>
</linearGradient>
<linearGradient id="paint1_linear_0_40" x1="0.0011794" y1="9.34137" x2="38.2095" y2="9.04762" gradientUnits="userSpaceOnUse">
<stop stop-color="#C44FE2"/>
<stop offset="1" stop-color="#73B0D0"/>
</linearGradient>
<linearGradient id="paint2_linear_0_40" x1="2.15743" y1="15.2476" x2="36.047" y2="15.2476" gradientUnits="userSpaceOnUse">
<stop stop-color="#778CBF"/>
<stop offset="1" stop-color="#5DCDC9"/>
</linearGradient>
</defs>
</svg>
